<?xml version="1.0" standalone="no"?>
<!DOCTYPE svg PUBLIC "-//W3C//DTD SVG 20010904//EN"
 "http://www.w3.org/TR/2001/REC-SVG-20010904/DTD/svg10.dtd">
<svg version="1.0" xmlns="http://www.w3.org/2000/svg"
 width="990.000000pt" height="660.000000pt" viewBox="0 0 990.000000 660.000000"
 preserveAspectRatio="xMidYMid meet">

<g transform="translate(0.000000,660.000000) scale(0.100000,-0.100000)"
fill="#000000" stroke="none">
<path d="M2030 6596 c0 -1 5 -18 12 -37 21 -61 68 -92 90 -60 15 20 85 39 173
45 73 6 129 21 145 41 11 13 -14 15 -204 15 -119 0 -216 -2 -216 -4z"/>
<path d="M8344 6408 c14 -422 36 -1382 38 -1708 l3 -345 -25 -3 c-30 -3 -117
70 -112 95 2 8 -2 21 -8 28 -8 10 -8 19 0 35 11 20 10 21 -24 14 -21 -4 -36
-2 -36 4 0 5 -39 40 -87 78 -48 38 -107 86 -131 107 l-44 38 -40 -46 c-38 -43
-67 -55 -60 -24 2 10 0 11 -7 4 -6 -6 -13 -49 -17 -95 -3 -47 -9 -110 -14
-140 -5 -30 -9 -64 -9 -75 l0 -20 10 20 c7 14 8 7 4 -27 -2 -27 -3 -48 0 -48
2 0 15 4 29 10 22 8 26 7 27 -8 1 -9 2 -24 3 -32 2 -8 3 -27 4 -42 l2 -28 68
55 c37 30 70 55 73 55 8 0 73 -103 71 -112 -1 -5 2 -8 6 -8 4 0 16 -14 26 -31
24 -41 155 -125 225 -145 31 -9 81 -29 112 -45 39 -19 88 -32 165 -43 132 -18
178 -28 269 -58 55 -18 72 -29 85 -53 19 -37 23 -41 90 -96 l56 -45 402 -3
402 -3 0 142 0 142 -62 -6 c-69 -6 -464 -15 -733 -17 -167 -1 -242 10 -406 57
-26 7 -69 55 -69 76 0 10 -7 29 -15 41 -11 17 -15 60 -17 162 l-3 140 110 8
c60 4 114 12 119 17 5 5 18 4 31 -2 16 -7 29 -7 44 1 12 7 28 8 35 4 12 -6
115 -2 206 8 8 1 20 1 25 -1 22 -7 235 13 235 22 0 6 -16 42 -35 82 -69 141
-89 292 -61 452 23 136 63 215 150 298 40 38 123 94 165 112 47 20 115 77 141
118 26 43 50 166 50 256 0 82 6 100 32 100 11 0 28 5 39 10 18 10 19 25 19
360 l0 350 -782 0 -781 0 7 -192z m616 30 c0 -18 -7 -51 -15 -73 l-14 -40 0
50 c-1 57 7 95 20 95 5 0 9 -15 9 -32z m-150 -98 c0 -11 4 -20 8 -20 13 0 29
-42 24 -62 -6 -30 -32 -8 -32 27 0 19 -4 37 -10 40 -5 3 -10 13 -10 21 0 8 5
14 10 14 6 0 10 -9 10 -20z m154 -85 c8 -19 30 -48 48 -66 29 -28 30 -30 6
-15 -15 9 -34 16 -42 16 -19 0 -60 76 -52 97 8 20 24 8 40 -32z m-192 -57 c-9
-9 -15 -9 -24 0 -9 9 -7 12 12 12 19 0 21 -3 12 -12z m166 -146 c-6 -27 -23
-16 -26 18 -2 33 -2 34 13 15 9 -11 14 -26 13 -33z m242 -565 c0 -10 -4 -15
-10 -12 -5 3 -10 18 -10 33 0 21 2 24 10 12 5 -8 10 -23 10 -33z m17 -89 c-3
-8 -6 -5 -6 6 -1 11 2 17 5 13 3 -3 4 -12 1 -19z m-167 -624 c0 -2 -12 -4 -26
-4 -14 0 -23 4 -20 9 6 8 46 4 46 -5z m-100 -7 c0 -7 -7 -22 -15 -33 -12 -16
-14 -17 -15 -2 0 23 11 48 21 48 5 0 9 -6 9 -13z m-820 -202 c59 -60 49 -76
-12 -20 -38 35 -65 75 -51 75 5 0 33 -25 63 -55z m1051 -3 c-9 -25 -9 -24 -10
18 0 36 2 41 10 27 7 -12 7 -27 0 -45z m-774 -237 c3 -9 3 -19 -1 -22 -7 -8
-56 17 -56 29 0 15 50 8 57 -7z"/>
<path d="M6808 6408 c-3 -7 -24 -13 -49 -14 -65 -3 -99 -11 -117 -27 -10 -9
-38 -25 -64 -36 -71 -30 -173 -116 -224 -187 -25 -35 -51 -67 -58 -71 -40 -25
-155 -237 -208 -383 -23 -65 -31 -106 -34 -175 -2 -49 -8 -127 -15 -171 -13
-90 -3 -190 25 -258 23 -55 31 -38 12 27 -19 65 -21 107 -4 67 6 -14 24 -53
39 -87 27 -59 28 -64 14 -97 -23 -54 -19 -82 14 -105 22 -16 31 -18 34 -9 3 8
6 6 6 -5 1 -11 7 -17 18 -15 12 2 21 -7 29 -31 8 -26 12 -30 17 -16 4 9 5 20
3 24 -3 4 -7 52 -10 107 -3 55 -7 106 -10 114 -2 8 -9 74 -15 145 -24 293 24
384 273 517 17 9 47 19 66 23 19 4 46 15 60 25 14 9 36 21 50 25 14 4 27 11
30 14 3 3 29 17 58 31 30 13 65 34 79 46 25 21 74 24 112 5 9 -4 34 -9 56 -10
22 -2 42 -6 45 -10 3 -5 17 -11 32 -15 25 -6 138 -105 138 -121 0 -3 9 -15 20
-27 17 -19 50 -108 50 -137 0 -6 4 -11 8 -11 5 0 14 -11 20 -25 6 -13 33 -35
60 -49 42 -21 208 -183 250 -243 29 -43 72 -140 72 -165 0 -20 4 -26 15 -22 8
3 17 14 20 24 7 23 37 31 59 15 10 -7 17 -16 17 -19 -4 -30 2 -48 17 -53 30
-12 52 -47 50 -80 -1 -18 0 -35 4 -38 9 -9 38 37 34 55 -6 28 -46 107 -61 120
-25 21 -17 27 32 26 44 -1 48 -3 68 -41 25 -48 38 -54 47 -23 5 14 6 8 2 -14
-5 -41 -3 -44 28 -27 20 11 20 11 2 -21 -11 -18 -25 -34 -31 -37 -7 -3 -13
-14 -13 -25 0 -16 7 -12 34 22 56 71 85 195 63 273 -5 19 -4 27 2 22 6 -3 8 0
5 9 -3 8 -12 17 -20 20 -8 3 -14 15 -14 26 0 19 -40 67 -73 87 -25 15 -54 68
-60 109 -7 40 -40 125 -76 194 -10 19 -31 73 -47 120 -26 81 -54 129 -100 176
-11 12 -38 44 -60 70 -109 137 -227 224 -421 313 -71 32 -104 42 -147 42 -30
1 -59 -2 -64 -5 -5 -3 -23 0 -41 7 -23 8 -38 9 -61 0 -23 -9 -32 -8 -41 3 -14
17 -46 18 -51 2z m82 -446 c0 -15 -2 -15 -10 -2 -13 20 -13 33 0 25 6 -3 10
-14 10 -23z m936 -828 l-15 -39 0 37 c-1 21 4 38 12 41 18 6 18 4 3 -39z"/>
<path d="M1823 6379 c-23 -4 -53 -15 -67 -24 -19 -13 -37 -15 -79 -10 -43 6
-57 4 -70 -9 -39 -39 18 -131 100 -162 50 -19 60 -14 65 35 2 28 9 36 33 44
47 16 99 83 88 114 -7 17 -24 20 -70 12z"/>
<path d="M5350 5850 c0 -5 5 -10 11 -10 5 0 7 5 4 10 -3 6 -8 10 -11 10 -2 0
-4 -4 -4 -10z"/>
<path d="M5397 5793 c-4 -3 -7 -13 -7 -22 1 -13 3 -13 11 2 11 19 8 33 -4 20z"/>
<path d="M7076 5285 c-92 -24 -131 -49 -120 -78 9 -24 76 -13 134 22 73 44 84
49 115 57 27 6 28 7 10 14 -29 12 -40 11 -139 -15z"/>
<path d="M8145 5203 c16 -38 25 -52 25 -39 0 12 -29 76 -35 76 -3 0 2 -17 10
-37z"/>
<path d="M7163 5158 c-24 -5 -43 -13 -43 -18 0 -4 -9 -6 -19 -3 -40 10 -125
-56 -133 -103 -2 -14 2 -18 17 -16 11 2 28 4 37 5 9 1 14 5 11 10 -7 11 36 57
53 57 7 0 16 -10 19 -21 6 -19 12 -21 59 -15 28 3 76 8 106 11 77 9 85 12 71
29 -10 11 -8 15 6 18 25 5 -84 58 -116 57 -15 -1 -45 -5 -68 -11z m34 -14 c-3
-3 -12 -4 -19 -1 -8 3 -5 6 6 6 11 1 17 -2 13 -5z"/>
<path d="M6336 5131 c-40 -11 -64 -24 -75 -41 l-16 -24 35 21 c28 16 40 19 60
11 30 -12 188 -4 202 10 16 16 -49 42 -101 41 -25 -1 -72 -9 -105 -18z"/>
<path d="M6100 5010 c0 -5 5 -10 11 -10 5 0 7 5 4 10 -3 6 -8 10 -11 10 -2 0
-4 -4 -4 -10z"/>
<path d="M6455 5009 c-62 -11 -126 -34 -119 -42 4 -4 2 -7 -4 -7 -7 0 -12 -5
-12 -11 0 -7 -8 -17 -17 -24 -14 -11 -12 -14 21 -25 39 -13 66 -2 66 26 0 14
27 44 39 44 4 0 13 -11 19 -25 15 -33 32 -39 80 -26 26 8 42 18 45 32 5 18 8
19 27 9 33 -18 47 3 17 23 -40 26 -106 37 -162 26z"/>
<path d="M7795 4880 c-3 -5 -1 -10 4 -10 6 0 11 5 11 10 0 6 -2 10 -4 10 -3 0
-8 -4 -11 -10z"/>
<path d="M6195 4830 c3 -5 8 -10 11 -10 2 0 4 5 4 10 0 6 -5 10 -11 10 -5 0
-7 -4 -4 -10z"/>
<path d="M7815 4730 c-3 -5 -1 -10 4 -10 6 0 11 -12 12 -27 l0 -28 10 24 c15
37 -7 71 -26 41z"/>
<path d="M7781 4694 c0 -11 3 -14 6 -6 3 7 2 16 -1 19 -3 4 -6 -2 -5 -13z"/>
<path d="M9868 4368 c-16 -5 -28 -16 -28 -24 0 -8 -9 -14 -20 -14 -12 0 -32
-11 -46 -25 -14 -14 -30 -25 -36 -25 -5 0 -19 -11 -29 -24 -11 -14 -28 -28
-39 -31 -29 -9 -25 -23 23 -66 23 -21 37 -38 30 -39 -8 0 -7 -12 4 -40 15 -37
33 -54 33 -30 0 7 6 7 19 0 11 -5 33 -10 49 -10 17 0 32 -6 36 -15 3 -8 12
-15 21 -15 13 0 15 26 15 185 0 102 -1 185 -2 184 -2 0 -15 -5 -30 -11z"/>
<path d="M7742 4260 c0 -14 2 -19 5 -12 2 6 2 18 0 25 -3 6 -5 1 -5 -13z"/>
<path d="M6413 4178 c4 -14 16 -45 27 -69 11 -24 17 -33 13 -19 -4 14 -9 43
-12 64 -3 22 -12 41 -20 44 -10 3 -12 -2 -8 -20z"/>
<path d="M7727 4118 c-3 -18 -9 -42 -12 -53 -6 -16 -2 -14 19 8 17 16 26 36
24 49 -5 34 -25 32 -31 -4z"/>
<path d="M6680 3910 c14 -27 18 -49 14 -67 -6 -21 -4 -25 8 -20 12 4 21 -12
41 -71 14 -42 28 -89 31 -104 4 -16 11 -28 16 -28 6 0 10 -7 10 -16 0 -14 -3
-14 -15 -4 -16 13 -21 0 -6 -15 6 -6 23 -36 39 -67 l29 -58 75 93 c111 136
106 122 64 194 -32 55 -39 61 -83 72 -45 11 -214 105 -221 123 -2 4 -8 8 -13
8 -5 0 0 -18 11 -40z"/>
<path d="M1917 3929 c-9 -5 -22 -7 -27 -4 -6 4 -25 -5 -42 -20 -18 -15 -39
-24 -50 -22 -10 3 -21 1 -24 -4 -3 -5 -21 -9 -40 -9 -32 0 -35 -2 -29 -21 6
-18 4 -21 -12 -17 -11 3 -31 -3 -44 -13 -13 -10 -31 -19 -40 -19 -8 0 -25 -13
-36 -28 -14 -19 -40 -35 -80 -47 -32 -10 -76 -32 -98 -49 -21 -17 -48 -36 -60
-42 -113 -60 -145 -80 -187 -119 -26 -25 -48 -50 -48 -55 0 -5 -13 -17 -30
-27 -16 -9 -30 -22 -30 -29 0 -6 -8 -22 -18 -35 -10 -13 -24 -44 -32 -69 -7
-25 -24 -69 -37 -98 -12 -29 -22 -61 -21 -70 5 -59 -3 -80 -37 -103 -26 -18
-35 -32 -36 -54 -1 -42 -13 -78 -26 -82 -6 -2 -27 12 -48 31 -20 20 -44 37
-54 40 -71 21 -155 37 -200 39 -54 2 -55 2 -62 -30 -3 -18 -12 -40 -19 -48
-11 -13 -9 -19 8 -38 11 -12 25 -41 31 -64 l12 -43 179 0 179 0 11 -42 c7 -24
16 -61 22 -83 14 -56 39 -106 65 -130 29 -26 76 -113 68 -125 -3 -6 -12 -10
-20 -10 -15 0 -25 -22 -25 -56 0 -14 -9 -43 -19 -65 -17 -34 -18 -41 -5 -46
18 -7 241 3 269 12 15 4 39 -10 99 -60 43 -36 82 -65 86 -65 5 0 6 10 3 23 -4
15 3 10 22 -18 15 -22 41 -55 58 -72 35 -38 113 -71 128 -56 6 6 -4 14 -29 21
-48 14 -122 91 -122 125 0 35 21 58 48 51 23 -7 29 -19 12 -29 -20 -13 -10
-53 21 -79 38 -32 74 -42 94 -26 9 8 29 10 51 7 67 -11 88 20 34 51 -45 25
-56 77 -12 53 16 -9 21 -7 25 9 3 13 14 20 29 20 18 0 27 10 41 45 11 26 16
53 12 66 -4 12 -8 27 -9 35 -1 7 -22 33 -47 57 -78 78 -96 102 -113 155 -15
44 -16 62 -6 123 6 39 8 81 4 93 -11 33 -56 87 -81 97 -13 5 -25 14 -27 21
-14 55 -23 73 -36 73 -7 0 -17 12 -21 28 -5 20 -4 27 7 27 8 0 14 9 14 21 0
16 4 19 20 14 32 -10 24 17 -15 55 -38 36 -37 31 -8 148 9 35 22 66 30 69 7 3
11 9 8 14 -3 4 8 15 25 24 16 8 30 21 30 28 0 14 14 23 103 71 146 79 234 123
257 130 157 50 210 59 269 44 64 -15 163 -61 247 -113 40 -25 75 -45 78 -45 4
0 0 13 -9 29 -8 16 -22 51 -30 78 -24 71 -34 88 -65 106 -15 10 -45 40 -65 68
l-37 52 31 -5 c30 -4 31 -4 13 16 -9 12 -20 23 -23 26 -3 3 -8 13 -12 23 -12
32 -53 39 -141 24 -68 -12 -86 -12 -115 -1 -18 8 -46 14 -62 14 -15 0 -31 5
-34 10 -3 6 -17 10 -31 10 -14 0 -22 4 -19 10 8 13 -15 12 -38 -1z m-457
-1602 c0 -26 -40 -57 -64 -51 -17 4 -25 0 -34 -18 l-11 -23 0 26 c-1 34 18 57
54 68 43 13 55 13 55 -2z"/>
<path d="M6665 3870 c3 -5 11 -10 16 -10 6 0 7 5 4 10 -3 6 -11 10 -16 10 -6
0 -7 -4 -4 -10z"/>
<path d="M6696 3775 c-3 -8 -1 -15 4 -15 6 0 10 7 10 15 0 8 -2 15 -4 15 -2 0
-6 -7 -10 -15z"/>
<path d="M3055 3719 c-19 -36 -18 -40 13 -28 12 5 22 17 22 28 0 33 -18 33
-35 0z"/>
<path d="M3080 3588 c0 -35 6 -58 18 -71 12 -13 17 -34 16 -68 -2 -45 -1 -47
17 -36 33 20 34 54 5 110 -15 29 -22 53 -16 55 16 6 12 27 -8 45 -28 26 -32
21 -32 -35z"/>
<path d="M2986 3552 c-3 -5 4 -25 14 -45 11 -20 20 -43 20 -51 0 -27 23 -30
43 -5 19 23 19 24 -2 38 -12 7 -21 19 -21 26 0 12 -31 45 -43 45 -3 0 -8 -4
-11 -8z"/>
<path d="M3165 3377 c-21 -16 -13 -37 15 -37 19 0 34 25 24 41 -7 12 -17 11
-39 -4z"/>
<path d="M2678 3336 c-13 -7 -35 -16 -49 -19 -32 -8 -91 -66 -87 -86 6 -28 43
-23 99 14 29 19 63 35 74 35 34 0 52 17 40 36 -16 26 -49 34 -77 20z"/>
<path d="M7237 3283 c-2 -4 -8 -30 -11 -58 -8 -53 -21 -96 -55 -182 -22 -55
-17 -67 14 -33 10 11 26 22 35 25 29 9 45 64 45 152 0 74 -13 121 -28 96z"/>
<path d="M2627 3159 c-21 -11 -46 -34 -55 -50 -10 -16 -20 -29 -24 -29 -17 0
-7 -30 14 -44 31 -22 52 -20 98 10 38 26 40 28 26 49 -8 13 -12 25 -9 29 12
11 44 6 49 -8 8 -21 66 10 62 33 -4 17 -15 18 -88 7 -43 -7 -44 -7 -20 8 22
14 23 15 5 15 -11 0 -37 -9 -58 -20z"/>
<path d="M2194 3029 c-17 -5 -51 -26 -75 -47 -24 -21 -60 -49 -79 -62 -51 -36
-67 -52 -75 -80 -4 -14 -16 -37 -26 -52 -18 -24 -26 -68 -13 -68 3 0 39 35 80
79 40 43 87 84 104 91 16 7 30 16 30 21 0 5 6 9 13 9 21 0 109 87 95 93 -8 3
-6 6 5 6 10 1 15 6 12 11 -7 12 -28 12 -71 -1z"/>
<path d="M2234 2903 c-17 -10 -42 -26 -55 -36 -20 -15 -22 -19 -9 -28 12 -8
10 -9 -7 -4 -16 4 -23 2 -23 -7 0 -8 -18 -29 -40 -47 -41 -34 -80 -96 -80
-126 0 -12 11 -7 43 18 23 19 68 51 101 72 42 27 55 40 47 48 -17 17 -13 27
12 36 15 6 27 4 39 -6 15 -13 20 -13 47 3 36 21 40 44 9 44 -21 1 -22 2 -6 14
13 10 15 15 6 24 -17 17 -48 15 -84 -5z"/>
<path d="M43 2893 l-43 -4 0 -55 0 -54 78 0 77 0 58 53 c31 28 57 55 57 60 0
7 -146 7 -227 0z"/>
<path d="M9813 2799 c3 -50 7 -92 9 -94 2 -1 20 -5 41 -8 l37 -6 0 100 0 99
-46 0 -47 0 6 -91z"/>
<path d="M333 2828 c-50 -35 -42 -48 27 -48 56 0 60 2 60 23 0 49 -37 60 -87
25z"/>
<path d="M2710 2648 c-65 -45 -47 -65 20 -23 22 14 49 25 60 25 11 0 20 5 20
10 0 19 -67 10 -100 -12z"/>
<path d="M2995 2570 c-28 -29 -28 -32 -16 -63 15 -36 17 -60 6 -97 l-7 -25 21
25 c22 27 26 43 36 133 4 31 2 57 -2 57 -5 0 -22 -14 -38 -30z"/>
<path d="M2640 2320 c0 -5 7 -10 15 -10 8 0 15 5 15 10 0 6 -7 10 -15 10 -8 0
-15 -4 -15 -10z"/>
<path d="M2573 2291 c-39 -18 -61 -50 -48 -71 6 -9 29 -8 114 6 l33 5 -25 27
c-13 15 -22 33 -20 40 6 16 -4 15 -54 -7z"/>
<path d="M2690 2254 c0 -8 5 -12 10 -9 6 3 10 10 10 16 0 5 -4 9 -10 9 -5 0
-10 -7 -10 -16z"/>
<path d="M13 2193 c-9 -3 -13 -32 -13 -94 l0 -89 39 0 c22 0 44 -6 51 -15 22
-26 27 -17 34 58 8 82 10 85 50 111 22 14 26 20 15 27 -15 9 -155 11 -176 2z"/>
<path d="M1771 2093 c11 -23 17 -47 14 -54 -5 -7 -1 -10 10 -7 30 5 27 22 -10
64 l-35 39 21 -42z"/>
<path d="M1843 1967 c-27 -35 -54 -46 -128 -54 l-67 -8 26 -30 c25 -29 26 -33
26 -175 l0 -145 78 -78 c42 -42 82 -77 88 -77 6 0 28 25 49 55 35 51 55 68 55
46 0 -5 3 -17 6 -26 5 -12 2 -16 -11 -13 -14 2 -17 -6 -19 -44 l-3 -47 24 16
c31 21 62 76 31 57 -7 -4 -8 -3 -4 5 4 6 2 19 -5 27 -6 8 -9 17 -5 21 3 3 6 2
6 -4 0 -6 9 -9 20 -6 11 3 20 12 20 20 0 11 7 13 30 8 16 -4 39 -4 50 0 23 7
28 35 6 35 -16 0 -66 39 -50 40 6 0 35 -7 64 -16 48 -14 57 -14 79 -1 15 8 53
20 86 27 33 6 74 16 92 21 20 7 43 7 65 0 18 -5 26 -10 17 -10 -15 -1 -29 -20
-29 -38 0 -3 25 -3 55 1 54 6 84 16 180 61 56 27 137 50 205 60 55 8 106 23
142 41 34 18 82 18 97 0 14 -17 51 -9 51 11 0 8 -5 11 -11 8 -16 -11 -98 17
-92 31 7 19 -10 24 -53 13 -174 -41 -237 -51 -388 -60 -94 -6 -187 -12 -206
-14 -46 -3 -176 44 -273 100 -42 25 -116 66 -165 92 -48 26 -93 53 -100 60
-17 17 -17 17 -39 -10z m350 -338 c46 -12 51 -39 7 -39 -30 0 -40 14 -17 24 6
3 1 4 -13 2 -14 -3 -34 2 -44 10 -19 14 -19 14 5 14 13 0 41 -5 62 -11z"/>
<path d="M90 1950 c-8 -5 -32 -10 -52 -10 l-38 0 0 -366 0 -366 28 6 c15 3 56
11 92 17 141 22 184 33 202 51 16 16 18 36 18 156 0 75 4 143 9 151 8 12 16
13 45 4 39 -12 45 -8 79 54 21 38 22 57 2 73 -23 19 -18 29 21 36 74 14 83 89
18 157 l-35 37 -167 0 c-92 0 -176 3 -187 5 -11 3 -27 1 -35 -5z"/>
<path d="M1566 1945 c10 -8 26 -14 34 -15 8 0 2 7 -14 15 -36 19 -45 19 -20 0z"/>
<path d="M3313 1941 c-17 -11 -35 -17 -40 -13 -4 4 5 -7 21 -25 45 -50 69 -55
233 -51 151 3 176 8 167 33 -10 24 -60 35 -121 25 -75 -13 -223 -13 -223 -1 0
6 5 13 10 16 14 9 12 35 -2 35 -7 0 -27 -9 -45 -19z"/>
<path d="M2005 1470 c3 -5 11 -10 16 -10 6 0 7 5 4 10 -3 6 -11 10 -16 10 -6
0 -7 -4 -4 -10z"/>
<path d="M1911 1414 c0 -11 3 -14 6 -6 3 7 2 16 -1 19 -3 4 -6 -2 -5 -13z"/>
<path d="M6072 1070 c0 -14 2 -19 5 -12 2 6 2 18 0 25 -3 6 -5 1 -5 -13z"/>
<path d="M1155 1044 c-38 -8 -84 -19 -101 -24 -17 -6 -44 -10 -62 -10 -46 0
-45 -12 4 -45 45 -31 65 -66 78 -137 4 -21 10 -38 13 -38 8 0 256 80 264 86 3
2 3 25 -1 51 -6 40 -15 55 -55 90 -26 24 -52 42 -58 42 -7 -1 -43 -8 -82 -15z"/>
<path d="M3373 970 c-78 -35 -164 -101 -266 -204 -85 -86 -123 -115 -227 -176
-183 -107 -247 -149 -263 -174 -25 -38 -136 -106 -176 -107 -20 -1 -40 0 -46
1 -40 9 -234 -4 -313 -20 -52 -11 -108 -20 -123 -20 -15 0 -31 -4 -34 -10 -3
-5 0 -10 7 -10 26 0 477 -140 618 -192 l145 -53 1190 -2 1190 -2 -140 70 c-76
39 -160 81 -185 93 -25 13 -88 44 -140 69 -52 25 -187 109 -300 186 -113 78
-272 186 -355 241 -82 55 -201 134 -264 177 -168 115 -232 153 -255 153 -12 0
-40 -9 -63 -20z"/>
<path d="M6047 974 c-4 -4 -7 -19 -6 -33 l0 -26 10 24 c10 26 8 47 -4 35z"/>
<path d="M1836 804 c-11 -28 -7 -36 17 -28 30 9 32 11 17 29 -16 19 -26 19
-34 -1z"/>
<path d="M1632 735 c9 -9 166 -65 181 -65 10 0 17 8 17 19 0 11 6 21 13 24 28
10 -5 17 -107 21 -59 2 -106 3 -104 1z"/>
<path d="M1445 649 c-22 -5 -50 -11 -62 -14 -13 -3 -23 -10 -23 -15 0 -6 -9
-19 -20 -30 -40 -40 -19 -68 107 -142 107 -63 164 -91 269 -131 129 -50 134
-51 104 -26 -66 54 -90 83 -90 108 0 17 4 20 23 16 22 -6 22 -4 22 80 -1 98
-2 100 -100 129 -33 10 -73 22 -89 27 -35 11 -87 10 -141 -2z"/>
<path d="M1785 640 c-3 -5 -2 -10 4 -10 5 0 13 5 16 10 3 6 2 10 -4 10 -5 0
-13 -4 -16 -10z"/>
<path d="M561 599 c-1 -13 -17 -18 -78 -24 -43 -4 -81 -11 -84 -16 -5 -9 -88
-18 -316 -36 l-83 -6 0 -62 c0 -43 5 -66 15 -75 27 -23 29 -52 4 -71 -20 -15
-22 -21 -13 -36 9 -14 25 -18 73 -19 42 0 65 -5 71 -14 10 -16 -5 -40 -26 -40
-32 0 -44 -30 -44 -116 l0 -84 125 0 125 0 0 85 c0 88 -6 102 -55 131 -13 7
-16 17 -12 35 11 42 24 52 69 58 41 6 43 8 46 41 6 77 38 111 92 97 11 -3 26
3 36 14 9 10 22 19 27 19 6 0 30 10 55 21 l43 22 -29 31 c-16 17 -32 38 -35
46 -5 12 -6 12 -6 -1z m-221 -219 c0 -14 -7 -20 -24 -20 -23 0 -41 22 -29 34
4 3 17 6 30 6 16 0 23 -6 23 -20z m-125 -155 c0 -11 -7 -21 -16 -23 -18 -3
-33 23 -23 39 10 17 39 5 39 -16z"/>
<path d="M860 413 c0 -15 15 -28 33 -31 16 -3 17 0 7 17 -10 20 -40 30 -40 14z"/>
<path d="M1055 360 c-18 -20 -18 -22 -1 -51 9 -16 15 -38 11 -48 -4 -14 7 -33
40 -67 47 -50 49 -53 39 -78 -10 -25 -25 -19 -76 31 -40 39 -49 44 -63 33 -8
-7 -15 -19 -15 -26 0 -16 98 -84 120 -84 9 0 37 22 64 49 l47 48 -20 34 c-15
24 -21 51 -21 94 0 55 -2 61 -27 73 -40 18 -77 15 -98 -8z"/>
<path d="M847 354 c3 -7 9 -14 14 -14 14 0 10 17 -5 23 -10 4 -13 1 -9 -9z"/>
</g>
</svg>
